<svg width="1512" height="850" viewBox="0 0 1512 850" fill="none" xmlns="http://www.w3.org/2000/svg">
<path d="M-147.019 753.476C-176.832 739.01 -189.273 703.115 -174.807 673.302L151.894 0.000252232L350.822 96.5246C380.635 110.99 393.076 146.885 378.61 176.698L51.9088 850L-147.019 753.476Z" fill="#F56D47"/>
<path d="M508.161 753.476C478.348 739.01 465.907 703.115 480.372 673.302L807.074 0.000252232L1006 96.5246C1035.81 110.99 1048.26 146.885 1033.79 176.698L707.089 850L508.161 753.476Z" fill="#F56D47"/>
<path d="M179.829 753.476C150.016 739.01 137.575 703.115 152.04 673.302L478.742 0.000252232L677.67 96.5246C707.482 110.99 719.924 146.885 705.458 176.698L378.756 850L179.829 753.476Z" fill="#F56D47"/>
<path d="M835.01 753.476C805.197 739.01 792.756 703.115 807.222 673.302L1133.92 0.000252232L1332.85 96.5246C1362.66 110.99 1375.11 146.885 1360.64 176.698L1033.94 850L835.01 753.476Z" fill="#F56D47"/>
<path d="M1161.86 753.476C1132.05 739.01 1119.61 703.115 1134.07 673.302L1460.77 0.000252232L1659.7 96.5246C1689.51 110.99 1701.95 146.885 1687.49 176.698L1360.79 850L1161.86 753.476Z" fill="#F56D47"/>
</svg>
