<svg width="192" height="35" viewBox="0 0 192 35" fill="none" xmlns="http://www.w3.org/2000/svg">
<g id="Isolatiemodus" clip-path="url(#clip0_26_1492)">
<path id="Vector" d="M82.8282 26.1342C82.6861 26.1342 82.5781 26.0038 82.6015 25.8625L84.5018 15.1082C84.6116 14.5159 84.6494 13.9978 84.6494 13.554C84.6494 11.9256 83.8414 11.5198 82.04 11.5198C79.5404 11.5198 78.0701 12.9255 77.5932 15.7005L75.7882 25.9422C75.7684 26.0527 75.6731 26.1324 75.5615 26.1324H71.2497C71.1075 26.1324 70.9995 26.002 71.0229 25.8607L74.1398 8.11981C74.1596 8.00932 74.255 7.92962 74.3666 7.92962H78.457C78.601 7.92962 78.709 8.06004 78.6838 8.20133L78.3292 10.1758C78.3113 10.2808 78.4426 10.3406 78.5092 10.2573C79.9561 8.43681 81.9104 7.44778 84.6512 7.44778C87.6655 7.44778 89.6865 9.07623 89.6865 12.1085C89.6865 12.5523 89.6505 13.0341 89.5767 13.5142L87.4046 25.9386C87.3848 26.0491 87.2894 26.1288 87.1778 26.1288H82.83L82.8282 26.1342ZM101.796 24.2141C101.814 24.1072 101.679 24.0493 101.616 24.1344C100.587 25.5147 98.5998 26.3172 96.5519 26.3172C93.2065 26.3172 90.9642 24.3192 90.9642 21.1384C90.9642 20.6946 91.0379 20.2127 91.1117 19.7327L93.1363 8.12162C93.1561 8.01113 93.2514 7.92962 93.363 7.92962H97.6748C97.817 7.92962 97.925 8.06004 97.9016 8.20133L96.0012 19.0299C95.9275 19.5117 95.8537 19.9175 95.8537 20.287C95.8537 21.9897 96.7733 22.4335 98.4631 22.4335C100.632 22.4335 102.395 20.9898 102.726 19.0299L104.641 8.12162C104.661 8.01113 104.756 7.93143 104.868 7.93143H109.18C109.322 7.93143 109.43 8.06185 109.406 8.20314L106.183 26.616C105.264 31.7586 101 34.7547 96.4439 34.7547C91.8874 34.7547 89.6073 32.5719 89.6073 28.9455C89.6073 28.4474 89.6667 27.8895 89.7584 27.3261C89.7764 27.2156 89.8736 27.1341 89.9852 27.1341H93.9677C94.1062 27.1341 94.2106 27.2573 94.1944 27.3967C94.1656 27.6268 94.1656 27.8442 94.1656 28.0597C94.1656 29.7987 95.231 30.612 97.3995 30.612C99.1271 30.612 100.964 29.0958 101.369 26.6903L101.8 24.2159L101.796 24.2141ZM180.191 13.4435C180.069 13.4435 179.966 13.3457 179.963 13.2225C179.907 11.5162 179.184 11.0398 177.174 11.0398C175.005 11.0398 173.902 11.5198 173.902 12.7787C173.902 13.6663 174.821 14.1482 176.511 14.6282C181.656 16.1081 183.936 16.2566 183.936 20.1783C183.936 23.8047 180.591 26.616 174.784 26.616C170.042 26.616 167.213 24.5438 167.213 21.2507C167.213 21.017 167.236 20.758 167.263 20.4971C167.276 20.3794 167.373 20.2888 167.492 20.2888H171.953C172.086 20.2888 172.189 20.4029 172.181 20.5388C172.176 20.6402 172.176 20.7435 172.176 20.8449C172.176 22.3248 173.463 22.9914 175.374 22.9914C177.285 22.9914 179.013 22.3629 179.013 20.9192C179.013 19.9211 178.131 19.4393 176.477 19.0317C170.706 17.7003 169.164 16.1461 169.164 13.0015C169.164 10.337 171.589 7.45141 177.947 7.45141C182.651 7.45141 184.636 9.30085 184.636 12.4454C184.636 12.7099 184.613 12.9744 184.586 13.2388C184.573 13.3566 184.474 13.4453 184.357 13.4453H180.195L180.191 13.4435ZM188.858 8.01656C186.825 8.14699 185.165 6.47868 185.297 4.4318C185.403 2.75988 186.751 1.38684 188.412 1.27996C190.444 1.14773 192.123 2.83596 191.991 4.88284C191.883 6.55476 190.519 7.9115 188.86 8.01837L188.858 8.01656ZM189 1.8415C187.154 1.60783 185.606 3.16744 185.837 5.02594C185.995 6.29211 187.01 7.31374 188.268 7.47314C190.114 7.70681 191.662 6.1472 191.432 4.2887C191.273 3.02253 190.258 2.0009 189 1.8415ZM189.283 6.04938V5.25599C189.283 4.95711 189.179 4.83212 188.81 4.83212H188.126V6.04938H187.496V2.96457H189.054C189.632 2.96457 190.001 3.35221 190.001 3.86302C190.001 4.18002 189.843 4.46259 189.546 4.56766C189.826 4.65641 189.913 4.81401 189.913 5.16723V6.04938H189.283ZM188.128 3.49349V4.32131H188.934C189.267 4.32131 189.407 4.1456 189.407 3.91555C189.407 3.6692 189.267 3.49168 188.952 3.49168H188.129L188.128 3.49349ZM8.32522 21.9571H20.0243C20.1737 21.9571 20.2727 22.0785 20.2475 22.2288L19.6068 25.8625C19.5798 26.0128 19.4377 26.1342 19.2883 26.1342H0.227064C0.0776978 26.1342 -0.0212796 26.0128 0.00391465 25.8625L0.788536 21.3829C0.808331 21.2724 0.891112 21.1728 1.00089 21.1311L2.31819 20.6275C5.10575 19.5606 9.20162 17.8996 12.5668 15.7965C15.9249 13.6971 17.7893 11.6575 18.1348 9.73921C18.9194 5.38822 15.1403 4.20175 11.1074 5.67804C12.7036 8.33899 12.1493 10.9619 12.1493 10.9619C11.6383 13.8819 8.80751 16.2566 5.83998 16.2566C2.87246 16.2566 0.874916 13.8819 1.386 10.9619C1.45078 10.5942 1.54256 10.2247 1.65774 9.86057C2.2588 7.96585 3.48612 6.27762 4.99778 4.88284C4.71704 4.70713 4.23835 4.44629 3.91802 4.2724C3.72907 4.17096 3.67508 3.93004 3.78845 3.71267L4.83221 1.72557C4.95639 1.49009 5.23172 1.36691 5.45307 1.4448C5.64023 1.51182 5.82199 1.58066 5.99835 1.64949C6.50043 1.83244 7.00072 2.0643 7.48661 2.34144C7.67736 2.44469 7.85912 2.55157 8.03548 2.65844C8.46918 2.41571 8.91548 2.1911 9.37078 1.98822C11.3701 1.10245 13.4271 0.678577 15.322 0.765525C17.4761 0.865152 19.3783 1.63319 20.8216 2.98449C22.4556 4.49158 23.1952 6.96776 22.6248 9.7374C21.662 14.4018 16.436 18.9882 8.31082 21.7524C8.19745 21.7905 8.21544 21.9553 8.32702 21.9553L8.32522 21.9571ZM7.56759 7.09094C7.56759 7.09094 5.74101 8.32088 5.40988 10.2065C5.12915 11.8042 5.72481 12.5251 6.61561 12.5251C7.5064 12.5251 8.35401 11.8042 8.63295 10.2065C8.93888 8.45492 7.56759 7.09094 7.56759 7.09094ZM157.124 11.3351H166.844C166.955 11.3351 167.051 11.2535 167.071 11.143L167.578 8.20133C167.603 8.06004 167.495 7.93143 167.351 7.93143H157.749C157.686 7.93143 157.637 7.87346 157.648 7.81188L158.425 3.28156C158.449 3.14027 158.341 3.01166 158.199 3.01166H153.959C153.847 3.01166 153.752 3.09318 153.732 3.20367L152.778 8.68859C152.377 10.2555 151.531 11.5778 150.304 12.5396C149.96 12.8095 149.534 13.0577 149.057 13.2787C148.997 13.3059 148.927 13.2696 148.915 13.2044C148.206 9.67943 145.56 7.47133 141.443 7.45141C135.508 7.42424 130.649 12.0216 130.244 17.9811C129.9 23.0494 132.675 26.616 138.045 26.616C143.806 26.616 148.076 22.8592 148.943 17.3344C148.949 17.2964 148.976 17.2656 149.012 17.2529C149.814 17.0011 150.581 16.6769 151.29 16.2802C151.366 16.2385 151.454 16.3019 151.439 16.387L150.934 19.2907C150.824 19.8831 150.786 20.4754 150.786 21.0297C150.786 24.1743 152.55 26.616 157.034 26.616C162.143 26.616 164.9 23.1762 165.599 19.327L166.47 14.4199C166.495 14.2786 166.387 14.1482 166.243 14.1482H162.264C162.152 14.1482 162.057 14.2297 162.037 14.3402L161.262 18.8832C160.857 21.1402 159.682 22.4353 157.844 22.4353C156.3 22.4353 155.566 21.843 155.566 20.2526C155.566 19.845 155.602 19.365 155.713 18.8107L157.022 11.422C157.031 11.3731 157.072 11.3369 157.122 11.3369L157.124 11.3351ZM144.171 14.1989C144.18 14.2623 144.129 14.3202 144.065 14.3202C143.68 14.3112 143.311 14.2786 142.972 14.2152C141.344 13.9181 139.803 13.1754 138.484 12.0777C138.425 12.0288 138.439 11.9292 138.511 11.9002C139.145 11.652 139.872 11.5198 140.694 11.5198C142.681 11.5198 143.854 12.0487 144.171 14.1989ZM138.745 22.582C136.355 22.582 135.18 21.6564 135.18 18.5118C135.18 17.1116 135.369 15.8799 135.752 14.8564C135.776 14.7912 135.857 14.7713 135.911 14.8129C137.784 16.2675 139.949 17.2583 142.242 17.6768C142.796 17.7782 143.363 17.8416 143.933 17.8724C143.996 17.876 144.041 17.9358 144.029 17.9974C143.435 20.8558 141.695 22.5802 138.747 22.5802L138.745 22.582ZM70.2977 7.93143H66.2432C66.1316 7.93143 66.0363 8.01294 66.0165 8.12344L65.6133 10.4964C65.5954 10.6014 65.446 10.6141 65.4154 10.5109C64.7477 8.32812 62.9734 7.44959 60.9398 7.44959C56.1979 7.44959 51.3102 12.2969 51.3102 19.4737C51.3102 24.062 53.3312 26.6142 57.3388 26.6142C60.3585 26.6142 62.1779 25.1615 63.5906 23.3265C63.6446 23.2577 63.7544 23.2812 63.7706 23.3682C64.1089 25.2122 65.5666 26.1324 68.1076 26.1324H69.0524C69.1639 26.1324 69.2611 26.0509 69.2791 25.9386L69.8316 22.6056C69.8532 22.4752 69.7596 22.3538 69.6282 22.3393C68.7878 22.2469 68.3289 21.8013 68.3289 20.9536C68.3289 20.7308 68.3649 20.546 68.4027 20.325L70.5244 8.20314C70.5496 8.06185 70.4417 7.93143 70.2977 7.93143ZM59.214 22.6183C57.2651 22.6183 56.0899 21.5459 56.0899 18.7328C56.0899 15.5882 57.5962 11.297 61.4563 11.297C63.4035 11.297 64.7639 12.4074 64.7639 15.514C64.7639 19.4719 62.5954 22.6165 59.214 22.6165V22.6183ZM126.999 20.9536C126.999 20.7308 127.035 20.546 127.073 20.325L130.334 1.54262C130.359 1.40133 130.251 1.27272 130.107 1.27272H126.053C125.941 1.27272 125.846 1.35423 125.826 1.46473L124.285 10.5018C124.267 10.6087 124.12 10.6159 124.087 10.5127C123.42 8.32994 121.645 7.45141 119.612 7.45141C114.87 7.45141 109.982 12.2987 109.982 19.4755C109.982 24.0638 112.003 26.616 116.011 26.616C119.031 26.616 120.85 25.1633 122.263 23.3283C122.317 23.2577 122.426 23.2831 122.443 23.37C122.781 25.2122 124.239 26.1342 126.78 26.1342H127.726C127.838 26.1342 127.935 26.0527 127.953 25.9404L128.505 22.6074C128.527 22.477 128.433 22.3556 128.302 22.3411C127.46 22.2487 127.001 21.8049 127.001 20.9554L126.999 20.9536ZM117.884 22.6183C115.935 22.6183 114.76 21.5459 114.76 18.7328C114.76 15.5882 116.266 11.297 120.127 11.297C122.074 11.297 123.434 12.4074 123.434 15.514C123.434 19.4719 121.266 22.6165 117.884 22.6165V22.6183ZM32.8482 26.1324C32.7061 26.1324 32.5981 26.002 32.6215 25.8607L34.5218 15.1064C34.5956 14.6626 34.6316 14.255 34.6316 13.9217C34.6316 12.1085 33.8236 11.3695 32.4271 11.3695C30.5897 11.3695 29.0817 13.0341 28.7146 15.2549L26.8376 25.9404C26.8178 26.0509 26.7224 26.1306 26.6108 26.1306H22.299C22.1569 26.1306 22.0489 26.0002 22.0723 25.8589L25.1892 8.118C25.209 8.00751 25.3043 7.9278 25.4159 7.9278H29.4326C29.5766 7.9278 29.6845 8.05823 29.6594 8.19952L29.3102 10.1486C29.2904 10.2555 29.4272 10.3134 29.492 10.2265C31.0756 8.11076 32.8104 7.44597 35.0743 7.44597C37.475 7.44597 38.5133 8.18321 39.5175 10.1739C39.5535 10.2446 39.6507 10.2518 39.6957 10.1884C41.0418 8.2919 42.7748 7.44597 44.9991 7.44597C48.2329 7.44597 50.2179 9.55444 50.2179 12.4038C50.2179 12.7371 50.1819 13.1428 50.1081 13.5142L47.936 25.9386C47.9162 26.0491 47.8208 26.1288 47.7092 26.1288H43.5072C43.365 26.1288 43.2571 25.9983 43.2804 25.8571L45.1808 15.1028C45.2546 14.659 45.2906 14.2514 45.2906 13.9181C45.2906 12.1049 44.371 11.3658 42.9745 11.3658C41.1371 11.3658 39.6291 13.0305 39.262 15.2513L37.385 25.9368C37.3652 26.0473 37.2698 26.127 37.1582 26.127H32.8464L32.8482 26.1324Z" fill="url(#paint0_linear_26_1492)"/>
</g>
<defs>
<linearGradient id="paint0_linear_26_1492" x1="0.000315476" y1="17.7547" x2="192" y2="17.7547" gradientUnits="userSpaceOnUse">
<stop stop-color="#FF0064"/>
<stop offset="1" stop-color="#FF00B6"/>
</linearGradient>
<clipPath id="clip0_26_1492">
<rect width="192" height="34" fill="white" transform="translate(0 0.5)"/>
</clipPath>
</defs>
</svg>
